<?xml version="1.0" standalone="no"?>
<!DOCTYPE svg PUBLIC "-//W3C//DTD SVG 20010904//EN"
 "http://www.w3.org/TR/2001/REC-SVG-20010904/DTD/svg10.dtd">
<svg version="1.0" xmlns="http://www.w3.org/2000/svg"
 width="512.000000pt" height="506.000000pt" viewBox="0 0 512.000000 506.000000"
 preserveAspectRatio="xMidYMid meet">

<g transform="translate(0.000000,506.000000) scale(0.100000,-0.100000)"
fill="#000000" stroke="none">
<path d="M0 2530 l0 -2530 2560 0 2560 0 0 2530 0 2530 -2560 0 -2560 0 0
-2530z m2106 2349 c21 -20 27 -21 105 -10 271 36 497 -18 635 -154 95 -94 143
-220 144 -377 0 -221 -94 -393 -266 -485 -119 -63 -326 -100 -506 -90 -67 3
-98 2 -98 -6 0 -41 -74 -62 -104 -28 -16 17 -15 26 1 142 32 225 19 825 -18
838 -23 7 -49 42 -49 64 0 13 9 32 20 42 11 10 20 25 20 33 0 49 76 69 116 31z
m-1675 -109 c56 -30 74 -134 85 -482 l6 -227 75 50 c196 133 412 327 576 519
93 109 133 140 179 140 36 0 68 -32 68 -67 -1 -40 -32 -104 -83 -171 -60 -77
-237 -247 -377 -361 -63 -52 -116 -96 -117 -100 -1 -3 44 -35 100 -71 235
-150 594 -570 614 -717 9 -70 -68 -117 -125 -77 -12 8 -64 79 -116 157 -174
263 -377 460 -582 566 l-62 32 -80 -52 -80 -52 -7 -71 c-36 -396 -70 -545
-137 -601 -37 -32 -72 -32 -103 0 -30 29 -31 57 -5 145 30 100 67 334 81 510
14 182 7 474 -16 699 -9 85 -13 167 -10 183 11 49 69 73 116 48z m3316 -55 c7
-10 14 -22 15 -27 2 -6 51 -4 127 6 478 62 836 -73 982 -369 60 -123 73 -187
74 -355 0 -236 -52 -392 -177 -525 -166 -179 -402 -255 -797 -260 l-204 -3
-14 -26 c-26 -50 -85 -61 -128 -23 l-26 22 20 145 c42 298 50 539 31 845 -14
219 -28 319 -42 324 -7 2 -25 17 -40 32 -39 38 -38 82 2 119 21 19 30 38 30
58 0 44 32 65 89 59 27 -3 50 -12 58 -22z m-305 -2304 c-4 -180 29 -135 -430
-588 -257 -254 -414 -403 -427 -403 -23 0 -95 68 -95 90 0 8 151 166 335 350
186 186 335 343 335 352 0 11 -7 18 -18 18 -9 0 -166 -149 -352 -335 -184
-184 -342 -335 -351 -335 -26 0 -100 86 -93 107 9 24 770 788 812 814 35 23
132 38 227 35 l60 -1 -3 -104z m-2266 -538 c92 -98 181 -192 198 -210 l29 -32
-28 -133 c-15 -73 -35 -169 -45 -213 l-17 -80 197 3 c160 2 199 0 209 -11 8
-10 11 -72 9 -212 l-3 -197 -170 -99 -170 -98 -80 0 c-78 -1 -80 0 -116 35
l-38 37 -49 -37 c-42 -31 -58 -36 -102 -36 -44 0 -60 5 -102 36 l-49 37 -38
-37 c-36 -35 -39 -36 -113 -36 l-75 0 -174 99 -174 98 -3 198 c-2 140 1 202 9
212 10 11 49 13 209 11 l197 -3 -17 80 c-10 44 -30 140 -45 213 l-28 133 34
37 c188 201 363 382 369 382 4 0 83 -80 176 -177z m3408 49 c305 -128 339
-148 356 -213 11 -40 0 -205 -21 -314 -40 -215 -151 -436 -299 -597 -116 -127
-302 -248 -380 -248 -106 0 -322 161 -455 338 -141 188 -220 405 -245 672 -12
129 -4 173 38 213 18 17 138 73 328 152 262 110 304 125 344 122 28 -3 154
-50 334 -125z m-2187 -455 l233 -232 0 -86 c0 -90 -8 -109 -45 -109 -35 0 -45
20 -45 90 l0 66 -60 59 -59 58 -62 -38 -62 -38 -21 29 c-21 29 -39 47 -85 82
l-24 19 38 62 38 62 -58 59 c-59 60 -60 60 -118 60 -69 0 -97 12 -97 43 0 39
19 47 109 47 l86 0 232 -233z m-249 -187 c34 -15 47 -29 63 -66 71 -158 -146
-273 -242 -128 -42 64 -12 160 61 196 44 23 65 22 118 -2z"/>
<path d="M2218 4747 c-37 -7 -70 -15 -73 -18 -3 -4 0 -51 6 -105 14 -113 18
-575 6 -676 l-8 -68 98 0 c409 0 590 121 610 405 16 235 -89 393 -302 452 -71
20 -256 25 -337 10z"/>
<path d="M3892 4526 c-51 -7 -95 -15 -97 -18 -2 -2 2 -71 10 -154 30 -304 29
-773 -1 -966 l-7 -38 119 0 c246 0 448 32 573 92 87 41 177 131 219 218 59
122 77 300 47 445 -44 210 -182 346 -410 406 -103 26 -322 34 -453 15z"/>
<path d="M798 1772 l-137 -147 67 -67 c36 -37 69 -64 73 -60 8 8 142 423 136
421 -1 0 -64 -66 -139 -147z"/>
<path d="M925 1703 c-38 -120 -71 -224 -73 -230 -3 -10 31 -13 148 -13 117 0
151 3 148 13 -2 6 -35 110 -73 230 -38 119 -72 217 -75 217 -3 0 -37 -98 -75
-217z"/>
<path d="M1074 1877 c38 -124 119 -373 123 -381 3 -4 36 23 74 60 l68 68 -51
55 c-29 31 -91 98 -140 148 l-87 93 13 -43z"/>
<path d="M673 1520 c4 -14 27 -123 52 -244 44 -207 49 -223 97 -307 28 -49 52
-88 55 -86 2 2 -17 125 -42 273 l-47 269 -60 60 c-50 49 -59 56 -55 35z"/>
<path d="M1268 1482 l-56 -57 -46 -269 c-26 -148 -45 -271 -43 -273 3 -2 27
36 55 85 48 86 53 100 101 328 28 131 49 239 48 241 -2 1 -28 -23 -59 -55z"/>
<path d="M881 1193 c21 -120 50 -293 66 -385 27 -167 27 -168 53 -168 26 0 26
1 53 168 16 92 45 265 66 385 l37 217 -156 0 -156 0 37 -217z"/>
<path d="M440 1139 c8 -5 49 -27 91 -49 l76 -39 12 38 c18 62 20 61 -91 61
-74 0 -99 -3 -88 -11z"/>
<path d="M1371 1133 c0 -10 6 -32 12 -49 l12 -32 95 49 95 48 -107 0 c-97 1
-108 -1 -107 -16z"/>
<path d="M360 1115 c0 -10 105 -215 110 -215 3 0 30 24 59 54 l54 54 -112 56
c-61 31 -111 54 -111 51z"/>
<path d="M1526 1063 l-109 -55 54 -54 c29 -30 56 -54 59 -54 6 0 112 211 108
215 -2 2 -52 -22 -112 -52z"/>
<path d="M664 1061 l-11 -39 86 -113 c75 -98 86 -109 89 -87 2 18 -20 67 -69
152 -39 69 -74 126 -78 126 -4 0 -12 -18 -17 -39z"/>
<path d="M1241 974 c-49 -85 -71 -134 -69 -152 3 -23 13 -12 89 86 l86 112
-10 40 c-6 22 -14 40 -18 40 -4 0 -39 -57 -78 -126z"/>
<path d="M321 957 l-1 -117 28 6 c45 11 72 23 71 31 0 5 -22 51 -49 103 l-49
95 0 -118z"/>
<path d="M1627 965 c-52 -106 -54 -100 26 -119 l27 -6 0 110 c0 60 -1 110 -3
110 -1 0 -24 -43 -50 -95z"/>
<path d="M557 912 l-58 -58 133 -102 133 -101 27 26 c16 15 28 30 28 35 0 10
-191 258 -199 258 -4 0 -33 -26 -64 -58z"/>
<path d="M1281 850 c-50 -66 -94 -126 -97 -133 -2 -7 8 -25 24 -40 l28 -27
132 102 133 102 -58 58 c-31 32 -60 58 -64 58 -3 0 -47 -54 -98 -120z"/>
<path d="M401 808 c-18 -5 -30 -13 -25 -17 33 -28 269 -151 290 -151 22 0 6
16 -90 90 -64 50 -122 90 -129 89 -6 0 -27 -5 -46 -11z"/>
<path d="M1426 730 c-100 -76 -114 -90 -91 -90 36 0 302 151 283 160 -7 4 -27
11 -44 14 -27 6 -43 -3 -148 -84z"/>
<path d="M891 753 c0 -28 4 -55 9 -58 12 -7 12 15 1 70 l-9 40 -1 -52z"/>
<path d="M1097 751 c-4 -29 -6 -56 -2 -59 11 -12 16 8 13 59 l-3 54 -8 -54z"/>
<path d="M4240 1300 c0 -302 3 -550 6 -550 13 0 81 45 147 98 135 107 258 298
311 483 26 90 46 214 46 277 l-1 37 -247 103 c-136 56 -250 102 -254 102 -5 0
-8 -247 -8 -550z"/>
</g>
</svg>
