<?xml version="1.0" encoding="UTF-8" standalone="no"?>
<svg
   xmlns:dc="http://purl.org/dc/elements/1.1/"
   xmlns:cc="http://creativecommons.org/ns#"
   xmlns:rdf="http://www.w3.org/1999/02/22-rdf-syntax-ns#"
   xmlns:svg="http://www.w3.org/2000/svg"
   xmlns="http://www.w3.org/2000/svg"
   xmlns:sodipodi="http://sodipodi.sourceforge.net/DTD/sodipodi-0.dtd"
   xmlns:inkscape="http://www.inkscape.org/namespaces/inkscape"
   id="Layer_3"
   enable-background="new 0 0 64 64"
   height="512"
   viewBox="0 0 64 64"
   width="512"
   version="1.1"
   sodipodi:docname="crystal-white.svg"
   inkscape:version="0.92.4 (5da689c313, 2019-01-14)">
  <metadata
     id="metadata9">
    <rdf:RDF>
      <cc:Work
         rdf:about="">
        <dc:format>image/svg+xml</dc:format>
        <dc:type
           rdf:resource="http://purl.org/dc/dcmitype/StillImage" />
      </cc:Work>
    </rdf:RDF>
  </metadata>
  <defs
     id="defs7" />
  <sodipodi:namedview
     pagecolor="#ffffff"
     bordercolor="#666666"
     borderopacity="1"
     objecttolerance="10"
     gridtolerance="10"
     guidetolerance="10"
     inkscape:pageopacity="0"
     inkscape:pageshadow="2"
     inkscape:window-width="2560"
     inkscape:window-height="1377"
     id="namedview5"
     showgrid="false"
     inkscape:zoom="0.4609375"
     inkscape:cx="256"
     inkscape:cy="256"
     inkscape:window-x="-8"
     inkscape:window-y="-8"
     inkscape:window-maximized="1"
     inkscape:current-layer="Layer_3" />
  <path
     d="m62.988 37.939c-.005-.088-.023-.173-.052-.257-.011-.033-.018-.066-.032-.098-.048-.104-.11-.203-.194-.288-.001-.001-.002-.003-.003-.004 0 0 0-.001-.001-.001-.086-.085-.185-.147-.29-.195-.033-.015-.069-.022-.104-.033-.081-.027-.163-.045-.248-.05-.022-.002-.041-.013-.064-.013h-15.958c-.358 0-.688.191-.867.502l-.075.131 3.879-18.427c.067-.32-.026-.653-.25-.892l-16-17c-.015-.016-.037-.021-.052-.035-.078-.073-.165-.132-.262-.177-.011-.005-.019-.011-.03-.015-.121-.051-.249-.087-.385-.087s-.264.036-.384.087c-.011.004-.02.011-.03.016-.097.045-.184.104-.262.177-.016.014-.038.02-.052.035l-16 17c-.224.238-.317.571-.25.892l3.854 18.31-.007-.012c-.178-.311-.509-.503-.866-.504l-16-.042c-.001 0-.002 0-.003 0-.022 0-.042.011-.064.013-.082.005-.16.022-.238.047-.037.012-.073.019-.108.035-.107.048-.208.111-.296.197-.087.087-.15.19-.199.298-.015.033-.022.067-.033.102-.026.081-.044.162-.049.246-.002.02-.013.04-.013.061v16.042c0 .36.194.693.508.871l14.143 8c.15.085.319.129.492.129h5.857c.266 0 .52-.105.707-.293l2.876-2.876 3.803 2.958c.176.137.391.211.614.211h4c.223 0 .438-.074.614-.211l3.801-2.96 2.878 2.878c.187.188.441.293.707.293h6c.174 0 .345-.045.496-.132l14-8c.312-.178.504-.509.504-.868v-16c0-.022-.011-.04-.012-.061zm-6.516 13.43 4.528-9.11v10.404zm-6.743-6.096 10.043-5.037-5.007 10.074zm-10.729 9.841-.001-2.848 6.731-11.716 1.211 4.239zm8.368-16.114h10.407l-9.103 4.565zm-10.236 12.502c-.087.151-.133.323-.133.498l.001 6c0 .119.028.233.068.343l-1.647 1.283 5.51-32.143 5.397-5.397-4.455 21.163zm-11.946-23.502h13.627l-5.656 33h-2.314zm-7.793-9.021 12.309-13.079-6.155 19.233zm23.059 6.155-6.154-19.234 12.309 13.079zm-1.822.866h-13.26l6.63-20.719zm-20.959-3.915 5.397 5.397 5.511 32.145-1.648-1.282c.04-.108.068-.221.069-.338l.042-5.899c.001-.176-.044-.35-.132-.503l-4.794-8.407zm-10.102 29.284-4.569 1.305v-10.469zm1.706-1.058-5.039-10.108 10.078 5.069zm-3.039-11.342 10.439.027-1.305 4.567zm12.073 1.592 6.731 11.802-.019 2.724-7.921-10.297zm-13.738 13.744 4.219-1.205 10.27 7.9h-2.654zm17.343 6.367-11.401-8.771 5.389-5.389 8.77 11.402zm17.438-2.734 8.789-11.425 5.389 5.389-11.425 8.789zm8.382 3.062h-2.753l10.27-7.9 4.206 1.202z"
     id="path2" />
  <path
     style="fill:#f2f2f2;stroke-width:2.16949153"
     d="M 195.52424,376.01606 177.8913,344.85936 160.73367,263.6568 c -9.4367,-44.66141 -16.95097,-81.41553 -16.69838,-81.67582 0.25259,-0.26029 9.33791,8.52615 20.18961,19.52542 l 19.73036,19.99868 15.66008,91.77472 c 8.61304,50.4761 15.18347,92.25134 14.60096,92.83385 -0.58252,0.58251 -8.99395,-12.9614 -18.69206,-30.09759 z"
     id="path11"
     inkscape:connector-curvature="0"
     transform="scale(0.125)" />
  <path
     style="fill:#f2f2f2;stroke-width:2.16949153"
     d="m 247.26713,485.64068 c -0.0302,-0.89492 -10.08764,-59.95932 -22.34986,-131.25424 L 202.62231,224.75932 H 256 309.37769 l -22.29496,129.62712 c -12.26222,71.29492 -22.31966,130.35932 -22.34986,131.25424 -0.0302,0.89491 -3.95999,1.62712 -8.73287,1.62712 -4.77288,0 -8.70267,-0.73221 -8.73287,-1.62712 z"
     id="path13"
     inkscape:connector-curvature="0"
     transform="scale(0.125)" />
  <path
     style="fill:#f2f2f2;stroke-width:2.16949153"
     d="M 213.87884,177.57288 C 219.11575,161.1661 230.46234,125.5322 239.0935,98.386441 247.72465,71.240678 255.33258,49.030508 256,49.030508 c 0.66742,0 8.27535,22.21017 16.9065,49.355933 8.63116,27.145759 19.97775,62.779659 25.21466,79.186439 l 9.52165,29.83051 H 256 204.35719 Z"
     id="path15"
     inkscape:connector-curvature="0"
     transform="scale(0.125)" />
  <path
     style="fill:#f2f2f2;stroke-width:2.16949153"
     d="m 207.30432,197.09831 c 10.20822,-33.52084 46.33022,-144.256017 47.40819,-145.333986 0.70812,-0.708118 1.86686,-0.708118 2.57498,0 1.07797,1.077969 37.19997,111.813146 47.40819,145.333986 l 3.13825,10.30508 H 256 204.16607 Z"
     id="path17"
     inkscape:connector-curvature="0"
     transform="scale(0.125)" />
  <path
     style="fill:#f2f2f2;stroke-width:2.16949153"
     d="M 75.932203,474.16819 C 49.084746,458.84626 22.969492,443.8344 17.898305,440.80848 l -9.2203389,-5.50165 v -66.87376 c 0,-49.12026 0.6911419,-67.56488 2.6033899,-69.47714 3.394685,-3.39469 130.091134,-3.72684 136.386694,-0.35757 2.308,1.2352 4.19636,1.802 4.19636,1.25956 0,-0.54246 -6.8339,-33.36055 -15.18644,-72.92911 -8.35255,-39.56855 -15.18644,-73.32067 -15.18644,-75.0047 0,-4.61449 130.19632,-141.944449 134.5711,-141.944449 4.39897,0 134.44584,137.260579 134.44584,141.903549 0,1.70653 -6.83389,35.47705 -15.18644,75.0456 -8.35254,39.56856 -15.18644,72.38665 -15.18644,72.92911 0,0.54244 1.88837,-0.0243 4.19636,-1.25956 2.62465,-1.40466 28.52715,-2.24582 69.15808,-2.24582 52.35979,0 65.44028,0.57663 67.42862,2.97242 1.75369,2.11307 2.30092,22.3411 1.89277,69.9661 l -0.57413,66.99369 -57.49153,33.0327 -57.49152,33.0327 -27.19276,0.0521 -27.19275,0.052 -11.78398,-11.93221 c -6.48119,-6.56271 -12.6208,-11.9322 -13.64359,-11.9322 -1.02278,0 -8.72203,5.36949 -17.10946,11.9322 l -15.24987,11.93221 h -18.93224 -18.93224 l -15.35673,-11.93221 c -8.44619,-6.56271 -16.21276,-11.9322 -17.25905,-11.9322 -1.04628,0 -7.20512,5.36949 -13.68632,11.9322 l -11.78398,11.93221 -27.19275,-0.21402 -27.19276,-0.214 z m 75.570617,13.20001 c -0.39774,-1.13798 -18.63337,-15.87775 -40.52364,-32.75503 l -39.800476,-30.68593 -14.989963,3.88788 c -15.120551,3.92176 -21.121941,6.42197 -19.244557,8.0174 0.562055,0.47763 22.011748,12.72024 47.665985,27.20579 41.688621,23.53931 47.758081,26.34066 57.129941,26.36817 5.76724,0.0174 10.16046,-0.90027 9.76271,-2.03828 z m 115.34464,-0.38819 c 0,-1.3515 9.76271,-59.31014 21.69491,-128.79696 11.93221,-69.48682 21.69492,-128.42173 21.69492,-130.96645 0,-4.59932 -0.3218,-4.62677 -54.23729,-4.62677 -53.91548,0 -54.23729,0.0274 -54.23729,4.62677 0,2.54472 9.76271,61.47963 21.69492,130.96645 11.9322,69.48682 21.69491,127.44546 21.69491,128.79696 0,1.5024 4.21522,2.45728 10.84746,2.45728 6.63224,0 10.84746,-0.95488 10.84746,-2.45728 z m 161.37572,-24.11899 c 25.7854,-14.61695 46.88546,-27.26713 46.889,-28.11151 0.006,-1.47754 -27.4214,-10.39697 -31.97104,-10.39697 -2.67216,0 -81.61059,60.27525 -82.64396,63.1047 -0.39775,1.08902 4.12933,1.98005 10.06015,1.98005 9.79313,0 15.08825,-2.44035 57.66585,-26.57627 z m -27.18159,-25.35374 28.9738,-22.38204 -21.33988,-21.42024 c -11.73692,-11.78114 -22.33446,-21.36988 -23.55006,-21.30831 -1.75104,0.0887 -54.82158,67.70094 -68.1838,86.86666 -2.82028,4.04517 -2.15854,5.29777 8.50039,16.09077 l 11.55872,11.70413 17.53353,-13.58447 c 9.64343,-7.47147 30.57172,-23.6564 46.5073,-35.9665 z m -213.99747,37.36749 c 5.70879,-5.62293 10.37961,-10.9563 10.37961,-11.85193 0,-2.77573 -67.53399,-89.61786 -70.1808,-90.24566 -1.37344,-0.32577 -12.10872,9.05953 -23.85618,20.85623 l -21.359009,21.44855 45.223419,34.90197 c 24.87288,19.19608 46.16615,34.94975 47.31839,35.00818 1.15223,0.0584 6.76579,-4.49439 12.47457,-10.11734 z m 20.43011,-127.17511 -22.24871,-129.68701 -20.9361,-20.93609 c -11.51485,-11.51486 -21.51601,-20.35618 -22.2248,-19.64739 -0.70879,0.70879 6.67219,39.05398 16.40219,85.21156 l 17.69089,83.92283 19.31098,33.68851 19.31098,33.6885 v 26.74367 26.74364 l 6.98468,5.46634 c 3.84158,3.0065 7.20382,5.24722 7.47164,4.9794 0.26782,-0.26783 -9.52496,-58.84609 -21.76175,-130.17396 z m 89.26776,93.29924 0.60639,-27.28173 19.24697,-33.5768 19.24695,-33.57681 17.6909,-83.92283 c 9.73,-46.15758 17.11098,-84.50277 16.40218,-85.21156 -0.70879,-0.70879 -10.70995,8.13253 -22.22481,19.64739 l -20.93609,20.93609 -22.31539,129.74621 c -12.27345,71.36043 -22.34008,130.11541 -22.37028,130.56664 -0.0302,0.45123 3.11797,-1.62428 6.99594,-4.61223 l 7.05084,-5.43265 z M 175.5758,373.10052 c -14.5362,-25.55193 -27.23289,-46.95461 -28.21487,-47.5615 -1.69775,-1.04928 -10.68296,25.57776 -10.68296,31.65817 0,1.58692 4.21279,8.31557 9.36176,14.95253 5.14897,6.63697 19.54897,25.24689 32,41.35536 l 22.63824,29.28814 0.66363,-11.61732 c 0.64668,-11.32032 -0.0121,-12.8051 -25.7658,-58.07538 z m 168.28861,28.46392 c 16.70508,-21.95757 30.63159,-41.67732 30.94779,-43.82162 0.83118,-5.63645 -7.11476,-32.19673 -9.45043,-31.5893 -1.08457,0.28206 -13.93126,21.26833 -28.54821,46.63615 -24.76342,42.97709 -26.57627,46.90079 -26.57627,57.52106 0,6.26876 0.7322,11.348 1.62712,11.28719 0.89491,-0.0607 15.29491,-18.07588 32,-40.03348 z M 44.474576,416.64195 c 7.159322,-1.98949 13.818058,-4.35909 14.797191,-5.26577 0.979133,-0.90669 -6.535281,-18.12742 -16.698696,-38.26829 L 24.094133,336.48814 23.97927,379.4818 c -0.106737,39.95235 0.153702,42.91525 3.681747,41.88552 2.088136,-0.60945 9.654237,-2.73588 16.813559,-4.72537 z m 443.546164,-37.30636 -0.11477,-42.84745 -18.47892,36.61975 c -10.16342,20.14087 -17.67784,37.37702 -16.69871,38.30255 1.5301,1.44634 29.13152,10.10764 33.78024,10.6002 0.89492,0.0948 1.57542,-19.10895 1.51227,-42.67505 z M 95.28425,382.22156 115.63534,361.78549 74.088858,340.99037 C 51.238292,329.55305 32.542373,320.68146 32.542373,321.2757 c 0,2.19716 40.122674,81.38193 41.235966,81.38193 0.635149,0 10.312808,-9.19624 21.505911,-20.43607 z m 364.13281,-19.71465 c 11.02232,-22.0829 20.04057,-40.63694 20.04057,-41.23121 0,-0.59424 -18.69592,8.27735 -41.54648,19.71467 l -41.5465,20.79512 20.35111,20.43607 c 11.1931,11.23983 20.87075,20.43607 21.50591,20.43607 0.63514,0 10.17307,-18.06783 21.19539,-40.15072 z M 129.37304,329.86635 c 2.76772,-9.48343 5.05544,-17.48669 5.08382,-17.78499 0.0284,-0.29831 -19.22974,-0.49079 -42.795843,-0.42774 l -42.847458,0.11455 35.79661,18.20466 c 19.688141,10.01257 36.681771,17.96423 37.763641,17.67038 1.08186,-0.29388 4.23152,-8.29349 6.99923,-17.77695 z m 298.0423,1.18528 c 19.07749,-9.55279 34.68635,-17.8511 34.68635,-18.44068 0,-0.58958 -19.00665,-1.07197 -42.237,-1.07197 -32.82237,0 -42.03674,0.60447 -41.33866,2.71187 0.49408,1.49152 2.94545,9.78983 5.4475,18.44068 2.50206,8.65084 5.49561,15.72881 6.65234,15.72881 1.15673,0 17.71198,-7.81592 36.78947,-17.36871 z M 309.7272,206.86102 C 309.19131,205.36949 297.17471,167.78305 283.02362,123.33559 268.87255,78.888136 256.71192,42.522034 256,42.522034 c -0.71192,0 -12.87255,36.366102 -27.02362,80.813556 -14.15109,44.44746 -26.1677,82.0339 -26.70357,83.52543 -0.76295,2.12355 10.89267,2.71186 53.72719,2.71186 42.83453,0 54.49014,-0.58831 53.7272,-2.71186 z M 213.46696,126.5542 c 13.00006,-40.848199 24.06446,-75.489793 24.58757,-76.981319 2.12146,-6.048787 -3.57022,-1.283033 -21.10538,17.671917 -10.14237,10.96359 -32.03754,34.348022 -48.65593,51.965392 l -30.21525,32.03159 24.75613,24.82657 c 13.61588,13.65461 25.2602,24.81053 25.87627,24.79094 0.61608,-0.0195 11.75654,-33.45689 24.75659,-74.30509 z m 135.69858,49.51451 24.75578,-24.82621 -28.0454,-29.80386 C 330.45094,105.04651 308.55593,81.657639 297.22034,69.46337 277.69641,48.46049 271.7829,43.406859 273.94547,49.572881 c 0.52311,1.491526 11.58751,36.13312 24.58756,76.981319 13.00005,40.8482 24.14052,74.28549 24.75659,74.30509 0.61607,0.0195 12.26023,-11.13617 25.87592,-24.79058 z"
     id="path19"
     inkscape:connector-curvature="0"
     transform="scale(0.125)" />
  <path
     style="fill:#f2f2f2;stroke-width:2.16949153"
     d="M 146.73923,500.83287 123.17338,500.13301 65.630824,467.12413 8.0882684,434.11525 9.4881573,368.24812 c 0.7699387,-36.2269 1.8625767,-66.61575 2.4280837,-67.53076 1.659032,-2.68437 82.208524,-4.5717 111.744779,-2.61825 14.91525,0.98645 27.53444,1.47615 28.04264,1.0882 0.5082,-0.38795 -5.60614,-32.18109 -13.58743,-70.65142 -7.98129,-38.47033 -14.49878,-71.97285 -14.48332,-74.45005 0.0335,-5.36668 38.8479,-48.39245 93.79394,-103.970586 l 38.60673,-39.050847 40.71043,41.220339 c 55.01856,55.707674 91.58896,96.360214 91.62096,101.848094 0.0152,2.45135 -6.48905,35.94684 -14.45191,74.43444 -7.96288,38.4876 -14.07627,70.26655 -13.58534,70.61992 0.49094,0.35335 17.97736,-0.0807 38.85872,-0.96447 20.88136,-0.88381 52.12203,-0.93394 69.42373,-0.11151 l 31.45763,1.49547 0.48388,68.33899 0.48388,68.33898 -56.24289,32.01265 -56.2429,32.01265 -26.13617,1.40533 -26.13614,1.40533 -12.85904,-12.26544 c -7.07245,-6.7459 -14.29501,-12.26535 -16.05011,-12.26535 -1.7551,0 -10.14062,5.36949 -18.6345,11.9322 l -15.4434,11.93221 h -16.9419 -16.94191 l -15.94897,-11.93221 c -8.77193,-6.56271 -17.31428,-11.9322 -18.983,-11.9322 -1.66872,0 -8.66338,5.36949 -15.5437,11.9322 -6.88032,6.56272 -13.88581,11.72487 -15.56776,11.47145 -1.68195,-0.25342 -13.66272,-0.7757 -26.62394,-1.16061 z m 4.61505,-14.01071 c -0.47944,-1.43833 -18.65928,-16.49794 -40.39965,-33.46584 l -39.527933,-30.85069 -15.501065,4.29555 c -17.059237,4.72737 -19.044276,5.5992 -19.044276,8.36424 0,1.94963 38.792884,24.6853 74.079114,43.41614 16.16908,8.58297 22.42501,10.78092 30.77964,10.8141 7.23171,0.0286 10.21535,-0.76996 9.61417,-2.5735 z m 120.134,-21.24928 c 1.9845,-12.52881 11.55346,-69.62041 21.26432,-126.87024 9.71086,-57.24984 17.37348,-106.0235 17.02803,-108.38593 -0.34545,-2.36244 -10.23575,52.2885 -21.97847,121.44651 -11.74269,69.15803 -21.85532,127.93847 -22.47248,130.62322 -0.92047,4.00423 -2.59692,4.88136 -9.32968,4.88136 -6.73432,0 -8.40806,-0.87622 -9.32445,-4.88136 -0.61427,-2.68475 -10.72688,-61.41685 -22.47249,-130.51581 -11.74557,-69.09895 -21.63824,-123.74988 -21.98369,-121.44653 -0.34545,2.30337 7.31349,51.0287 17.01985,108.27854 9.70637,57.24983 19.08103,113.36516 20.83257,124.70075 4.33831,28.07652 3.24115,26.36559 16.42027,25.60575 l 11.38803,-0.6566 z m 110.34223,21.56687 c 0,-1.26364 0.9267,-1.72479 2.05932,-1.02478 3.68269,2.27602 91.80952,-48.08812 90.58296,-51.76782 -0.93113,-2.79333 -20.49673,-9.61289 -28.19255,-9.82647 -6.57132,-0.18246 -13.08735,4.21424 -58.48363,39.46103 -15.21356,11.81219 -27.66102,22.37195 -27.66102,23.46613 0,1.09421 4.88136,1.98945 10.84746,1.98945 6.18832,0 10.84746,-0.98682 10.84746,-2.29754 z m 2.23086,-35.09319 c 25.02387,-19.3717 45.49795,-36.36092 45.49795,-37.75386 0,-3.19211 -40.83558,-42.00795 -44.19378,-42.00795 -3.64181,0 -70.78927,85.88092 -70.78927,90.53878 0,2.95784 19.30041,24.44427 21.95734,24.44427 1.1164,0 22.50387,-15.84957 47.52776,-35.22124 z m -198.00266,25.39823 c 14.03589,-12.01421 13.86591,-13.58227 -4.06217,-37.47395 -28.22935,-37.61955 -52.82079,-67.68609 -55.36048,-67.68609 -3.33806,0 -44.195399,38.80467 -44.195319,41.97495 7.4e-5,2.87759 1.330718,3.96394 51.751159,42.24998 20.70723,15.72374 38.83659,28.58863 40.28746,28.58863 1.45086,0 6.66157,-3.44409 11.57935,-7.65352 z m 43.90739,-0.52317 c 0,-2.02871 -8.14711,-50.65478 -28.43619,-169.72162 l -15.34184,-90.0339 -9.02624,-9.40031 c -13.27895,-13.82928 -33.95612,-31.47771 -35.30242,-30.13141 -1.1821,1.1821 9.96949,58.94323 25.23261,130.6956 l 8.31649,39.0961 19.68558,34.34199 19.68557,34.34199 v 26.27703 c 0,26.03533 0.0549,26.32196 5.9661,31.16186 6.23135,5.10202 9.22034,6.19535 9.22034,3.37267 z m 60.83361,-3.07877 6.42063,-4.74697 v -26.26556 -26.26556 l 19.67466,-34.61458 19.67469,-34.61459 8.32739,-39.05084 c 15.09678,-70.79548 26.43196,-129.46191 25.24351,-130.65037 -1.34619,-1.34619 -22.02175,16.3006 -35.30296,30.13141 l -9.02678,9.40031 -21.91219,128 c -12.0517,70.4 -21.90151,129.22034 -21.88847,130.71187 0.0328,3.74918 1.39127,3.43465 8.78952,-2.03512 z m -95.69505,-67.24452 c -10.9887,-21.93169 -46.32726,-82.0086 -48.24965,-82.02626 -0.96533,-0.009 -1.15178,0.96013 -0.41433,2.15335 0.73745,1.19322 0.3987,2.1695 -0.75277,2.1695 -2.69696,0 -9.00994,18.46914 -9.00994,26.3593 0,6.0993 5.43879,13.90542 46.47257,66.70034 l 17.52743,22.55115 0.64634,-12.10199 c 0.53619,-10.03969 -0.52369,-14.43716 -6.21965,-25.80539 z m 139.41555,8.53387 c 28.25268,-36.6206 39.80301,-53.82532 40.41732,-60.20339 0.64174,-6.66274 -6.5734,-28.48939 -9.4547,-28.60162 -2.29958,-0.0896 -32.55114,49.64268 -46.46331,76.38361 -6.90692,13.27599 -8.78223,19.24194 -8.78223,27.93913 0,6.08219 0.85037,11.05854 1.88971,11.05854 1.03934,0 11.11628,-11.95932 22.39321,-26.57627 z m -288.960888,2.01088 c 11.660438,-3.90515 13.988317,-5.47391 13.446784,-9.06172 -0.360201,-2.38644 -8.17037,-19.81234 -17.355932,-38.72419 L 24.949153,334.97194 v 43.60275 c 0,49.59434 -1.868998,46.09681 20.610169,38.56839 z m 441.491528,-38.5449 v -43.57925 l -16.84341,34.34644 c -9.26388,18.89052 -16.37248,35.57363 -15.7969,37.07357 0.57557,1.49995 -0.0944,2.72716 -1.48879,2.72716 -8.83135,0 21.23629,12.56025 30.87486,12.89746 2.78843,0.0976 3.25424,-6.12402 3.25424,-43.46538 z m -389.875621,3.6567 20.973711,-20.40272 -42.211324,-20.96638 c -23.216228,-11.5315 -42.537595,-19.98755 -42.936372,-18.7912 -1.038043,3.11413 38.392832,80.56305 41.016346,80.56305 1.201161,0 11.622099,-9.18123 23.157639,-20.40275 z M 460.03387,363.40369 c 10.80747,-21.58967 19.33266,-40.20577 18.94489,-41.3691 -0.38778,-1.16334 -19.70014,7.31969 -42.91639,18.85119 l -42.21132,20.96638 20.97371,20.40272 c 11.53556,11.22152 22.00544,20.40275 23.26643,20.40275 1.261,0 11.1352,-17.66428 21.94268,-39.25394 z M 129.46934,332.14073 c 2.77152,-8.21614 5.03913,-16.21269 5.03913,-17.7701 0,-2.24061 -9.16964,-2.80223 -43.932199,-2.69074 l -43.932203,0.1408 36.687466,18.3644 c 20.178106,10.10042 37.679986,18.03355 38.893066,17.6292 1.21308,-0.40435 4.47321,-7.4575 7.24474,-15.67366 z m 297.77431,0.0816 c 17.7881,-8.90889 32.96573,-17.20719 33.72804,-18.44068 0.93618,-1.5147 -12.38732,-2.24265 -41.04704,-2.24265 -23.33821,0 -42.43312,0.62694 -42.43312,1.39323 0,5.04233 9.27581,31.14915 11.06735,31.14915 1.21312,0 1.6023,0.97627 0.86485,2.16949 -3.15984,5.11273 7.48529,1.16415 37.81992,-14.0285 z M 283.66102,223.13826 c -15.21356,-0.37294 -40.10848,-0.37294 -55.32204,0 -15.21356,0.37293 -2.7661,0.67806 27.66102,0.67806 30.42712,0 42.87458,-0.30513 27.66102,-0.67806 z m 26.54065,-16.27724 c -0.0473,-3.59946 -51.2719,-162.132372 -52.9203,-163.780774 -0.70474,-0.704757 -1.858,-0.704757 -2.56274,0 -1.6484,1.648402 -52.87304,160.181314 -52.92031,163.780774 -0.0275,2.09812 12.23918,2.71186 54.20168,2.71186 41.9625,0 54.22922,-0.61374 54.20167,-2.71186 z M 192.47719,193.84407 c 1.25947,-3.87797 12.16225,-37.44838 24.22841,-74.60092 12.06615,-37.152537 21.93847,-68.637283 21.93847,-69.966101 0,-1.328817 -0.88798,-2.416032 -1.97326,-2.416032 -1.08531,0 -24.14868,23.615453 -51.25195,52.478787 l -49.27866,52.478786 25.02034,24.53816 c 13.76119,13.49599 25.92178,24.53817 27.02353,24.53817 1.10175,0 3.03366,-3.17289 4.29312,-7.05085 z M 350.92187,176.27594 376.02462,151.65696 326.68494,99.258986 C 299.54812,70.440103 276.44767,46.861017 275.35061,46.861017 c -1.09707,0 -1.99468,1.087215 -1.99468,2.416032 0,1.328818 9.87232,32.813564 21.93846,69.966101 12.06617,37.15254 22.96895,70.72295 24.22841,74.60092 1.25948,3.87796 3.19139,7.05085 4.29314,7.05085 1.10173,0 13.29942,-11.07855 27.10593,-24.61898 z"
     id="path21"
     inkscape:connector-curvature="0"
     transform="scale(0.125)" />
</svg>
