<?xml version="1.0" encoding="UTF-8" standalone="no"?>
<!-- Generator: Adobe Illustrator 18.0.0, SVG Export Plug-In . SVG Version: 6.00 Build 0)  -->

<svg
   xmlns:dc="http://purl.org/dc/elements/1.1/"
   xmlns:cc="http://creativecommons.org/ns#"
   xmlns:rdf="http://www.w3.org/1999/02/22-rdf-syntax-ns#"
   xmlns:svg="http://www.w3.org/2000/svg"
   xmlns="http://www.w3.org/2000/svg"
   xmlns:sodipodi="http://sodipodi.sourceforge.net/DTD/sodipodi-0.dtd"
   xmlns:inkscape="http://www.inkscape.org/namespaces/inkscape"
   version="1.1"
   id="Capa_1"
   x="0px"
   y="0px"
   viewBox="0 0 290.226 290.226"
   style="enable-background:new 0 0 290.226 290.226;"
   xml:space="preserve"
   sodipodi:docname="sword-white.svg"
   inkscape:version="0.92.4 (5da689c313, 2019-01-14)"><metadata
   id="metadata45"><rdf:RDF><cc:Work
       rdf:about=""><dc:format>image/svg+xml</dc:format><dc:type
         rdf:resource="http://purl.org/dc/dcmitype/StillImage" /></cc:Work></rdf:RDF></metadata><defs
   id="defs43" /><sodipodi:namedview
   pagecolor="#ffffff"
   bordercolor="#666666"
   borderopacity="1"
   objecttolerance="10"
   gridtolerance="10"
   guidetolerance="10"
   inkscape:pageopacity="0"
   inkscape:pageshadow="2"
   inkscape:window-width="2560"
   inkscape:window-height="1377"
   id="namedview41"
   showgrid="false"
   inkscape:zoom="0.81315936"
   inkscape:cx="145.11301"
   inkscape:cy="145.11301"
   inkscape:window-x="-8"
   inkscape:window-y="-8"
   inkscape:window-maximized="1"
   inkscape:current-layer="Capa_1" />
<g
   id="g8">
	<path
   d="M63.951,243.575c-1.945-3.578-4.401-6.907-7.363-9.869c-3.106-3.102-6.626-5.633-10.4-7.63   c-4.51-2.387-0.945-7.5-0.945-7.5c4.616-7.023,8.825-14.079,12.305-20.226l-23.363-23.344H11.504c-4.362,0-7.898-3.539-7.898-7.902   c0-4.361,3.536-7.9,7.898-7.9h25.947c2.1,0,4.107,0.832,5.588,2.312l85.379,85.291c1.483,1.483,2.315,3.495,2.315,5.589v26.073   c0,4.365-3.537,7.897-7.9,7.897c-4.367,0-7.904-3.531-7.904-7.897v-22.798l-23.27-23.24c-6.281,3.707-13.582,8.252-20.816,13.25   C70.842,245.679,66.698,248.629,63.951,243.575z"
   id="path2" />
	<path
   d="M26.61,237.102c-7.106,0-13.784,2.764-18.812,7.784c-5.019,5.015-7.782,11.686-7.782,18.778   c0,7.097,2.764,13.762,7.782,18.776c5.027,5.016,11.706,7.783,18.812,7.785c7.102,0,13.781-2.77,18.804-7.785   c5.023-5.015,7.79-11.682,7.79-18.776c0-7.093-2.768-13.764-7.79-18.778C40.392,239.866,33.712,237.102,26.61,237.102z"
   id="path4" />
	<path
   d="M100.985,182.318c-3.502,3.499-9.232,3.499-12.734,0.001l-8.81-8.801c-3.502-3.498-3.502-9.223,0-12.721L229.832,10.564   c3.502-3.498,10.401-6.727,15.33-7.175l36.862-3.352c4.93-0.448,8.596,3.218,8.148,8.148l-3.346,36.791   c-0.448,4.93-3.68,11.825-7.182,15.324l-150.4,150.251c-3.502,3.498-9.232,3.498-12.734,0l-8.822-8.813   c-3.502-3.498-3.502-9.223,0-12.722L233.608,63.213c1.854-1.848,1.856-4.852,0.003-6.702c-1.848-1.853-4.853-1.853-6.709-0.002   L100.985,182.318z"
   id="path6" />
</g>
<g
   id="g10">
</g>
<g
   id="g12">
</g>
<g
   id="g14">
</g>
<g
   id="g16">
</g>
<g
   id="g18">
</g>
<g
   id="g20">
</g>
<g
   id="g22">
</g>
<g
   id="g24">
</g>
<g
   id="g26">
</g>
<g
   id="g28">
</g>
<g
   id="g30">
</g>
<g
   id="g32">
</g>
<g
   id="g34">
</g>
<g
   id="g36">
</g>
<g
   id="g38">
</g>
<path
   style="stroke-width:1.22977126"
   d="m 112.33693,205.68191 c -4.90437,-4.90437 -6.5766,-7.47719 -6.5766,-10.1185 0,-3.03737 9.21069,-12.75866 64.66317,-68.24775 58.92638,-58.965285 64.62701,-65.022904 64.25554,-68.27942 -0.30629,-2.685162 -1.13845,-3.67688 -3.34736,-3.98917 -2.45439,-0.346996 -13.62942,10.261501 -67.68702,64.25555 -74.381068,74.29361 -68.029456,69.65757 -79.592469,58.09455 -4.908011,-4.908 -6.576603,-7.47631 -6.576603,-10.12274 0,-3.05026 10.790846,-14.34427 77.168142,-80.766409 52.47348,-52.508919 78.80611,-78.0163484 82.28658,-79.7079316 6.95184,-3.3787346 47.26027,-7.28987166 50.17756,-4.8687402 2.33478,1.9377022 2.38177,10.5014268 0.17657,32.1788228 -1.28874,12.668406 -2.16579,16.538613 -4.74541,20.940399 -1.79565,3.064047 -36.19756,38.232817 -79.53101,81.303859 -87.15167,86.6239 -79.34425,80.65432 -90.67109,69.32748 z"
   id="path47"
   inkscape:connector-curvature="0" /><path
   style="stroke-width:1.22977126"
   d="m 112.33693,205.68191 c -4.87602,-4.87602 -6.5766,-7.48402 -6.5766,-10.08582 0,-2.99291 9.49942,-13.02966 64.56299,-68.21502 51.80311,-51.91769 64.56299,-65.331747 64.56299,-67.87307 0,-2.93138 -1.94139,-4.660203 -5.2332,-4.660203 -0.73849,0 -30.47535,29.053346 -66.08192,64.562993 -74.336931,74.13459 -67.995243,69.51014 -79.518999,57.98638 -4.908011,-4.908 -6.576603,-7.47631 -6.576603,-10.12274 0,-3.05026 10.790846,-14.34427 77.168142,-80.766409 52.93065,-52.9664 78.79116,-78.0090564 82.33555,-79.7316382 7.10703,-3.454034 47.09902,-7.35934778 50.07453,-4.8898979 2.39499,1.9876677 2.4549,10.3588371 0.23063,32.2236871 -1.29129,12.693414 -2.16093,16.523641 -4.7467,20.906111 -1.74534,2.958076 -37.355,39.437838 -79.36465,81.303857 -87.18229,86.88424 -79.31846,80.87947 -90.83616,69.36177 z"
   id="path49"
   inkscape:connector-curvature="0" /><path
   style="stroke-width:1.22977126"
   d="m 112.33693,205.68191 c -4.84067,-4.84066 -6.5766,-7.49235 -6.5766,-10.04592 0,-2.9379 9.76816,-13.27978 63.77158,-67.51711 35.07438,-35.226288 64.17345,-65.319497 64.66459,-66.873798 0.99542,-3.150083 -0.99119,-6.397285 -3.9138,-6.397285 -1.01361,0 -31.01808,29.053346 -66.67662,64.562993 -74.688705,74.37683 -68.463848,69.8626 -79.803248,57.87286 -4.507404,-4.76592 -6.327244,-7.67741 -6.327244,-10.12274 0,-2.90011 11.971315,-15.41202 77.168142,-80.652889 52.93065,-52.9664 78.79116,-78.0090564 82.33555,-79.7316382 7.10703,-3.454034 47.09902,-7.35934778 50.07453,-4.8898979 2.41324,2.0028096 2.4871,11.7534151 0.24864,32.8259571 -1.27569,12.009246 -2.20332,15.960347 -4.76391,20.291225 -1.74886,2.957955 -37.45004,39.550369 -79.33596,81.316473 -87.17964,86.93026 -79.30683,80.9206 -90.86565,69.36177 z"
   id="path51"
   inkscape:connector-curvature="0" /><path
   style="stroke-width:1.22977126;fill:#ffffff"
   d="m 112.08757,205.56839 c -4.37543,-4.62636 -6.32724,-7.7059 -6.32724,-9.98296 0,-2.70219 11.4505,-14.83107 63.8355,-67.61738 35.10953,-35.378498 64.21975,-65.535188 64.68939,-67.014868 0.55228,-1.740075 0.18373,-3.360471 -1.04341,-4.587621 -1.70989,-1.709875 -2.23865,-1.673825 -5.35293,0.364956 -1.90059,1.244236 -31.74304,30.382975 -66.31655,64.752753 -72.42811,72.00131 -66.482182,67.73505 -77.769498,55.80038 -4.507404,-4.76592 -6.327244,-7.67741 -6.327244,-10.12274 0,-2.90011 11.971315,-15.41202 77.168142,-80.652889 51.66831,-51.703211 78.83175,-78.0288643 82.20256,-79.6672586 3.38169,-1.6436773 10.64859,-3.0427601 22.13588,-4.261779 20.83522,-2.21100966 26.61869,-2.28505916 28.53835,-0.3653952 1.88995,1.8899433 1.81284,13.3800708 -0.21807,32.4988538 -1.27569,12.009246 -2.20332,15.960347 -4.76391,20.291225 -1.74886,2.957955 -37.45004,39.550369 -79.33596,81.316473 -87.49289,87.24262 -79.69889,81.31911 -91.11501,69.24825 z"
   id="path53"
   inkscape:connector-curvature="0" /><path
   style="fill:#ffffff;stroke-width:1.22977126"
   d="M 16.601912,287.39772 C 10.756392,284.68551 4.3843086,278.26328 2.4477762,273.13219 -0.06805554,266.46618 0.71359075,257.01228 4.2843356,250.91927 15.782971,231.29833 45.496437,235.1654 51.632545,257.08142 c 5.617763,20.06468 -16.280564,39.01599 -35.030633,30.3163 z"
   id="path55"
   inkscape:connector-curvature="0" /><path
   style="fill:#ffffff;stroke-width:1.22977126"
   d="m 118.05804,283.58525 c -2.14019,-2.14018 -2.45954,-4.09924 -2.45954,-15.08777 v -12.62823 l -12.17219,-12.12651 -12.172179,-12.12651 -10.620902,6.92306 c -5.841496,3.80768 -11.570304,6.90303 -12.730684,6.87855 -1.160382,-0.0245 -4.046673,-2.8904 -6.413983,-6.36874 -2.36731,-3.47833 -6.894944,-8.02384 -10.061408,-10.10111 -3.166465,-2.07728 -6.084993,-4.54826 -6.485618,-5.49107 -0.400624,-0.94281 2.42392,-6.92447 6.276766,-13.29257 L 58.223475,198.58598 46.044165,186.36079 33.864854,174.13561 H 21.471672 c -13.0889955,0 -15.6499712,-0.87077 -17.1196694,-5.82094 -0.5947637,-2.00326 0.022101,-3.58405 2.2794675,-5.84141 2.9706616,-2.97067 3.7011539,-3.09491 18.1969289,-3.09491 h 15.102026 l 45.212663,45.21267 45.212662,45.21266 v 15.44665 c 0,14.55614 -0.16409,15.6008 -2.84624,18.12056 -3.54048,3.3261 -6.27765,3.38818 -9.45147,0.21436 z"
   id="path57"
   inkscape:connector-curvature="0" /><path
   style="fill:#ffffff;stroke-width:1.22977126"
   d="m 113.7077,206.4171 c -6.69041,-7.089 -7.72601,-10.26808 -4.79972,-14.73416 1.20396,-1.83747 17.4644,-18.85041 36.13431,-37.80651 78.67584,-79.881878 89.84402,-91.670089 89.84402,-94.831946 0,-3.808513 -3.12424,-5.117798 -6.80171,-2.850422 -1.5416,0.950491 -30.70599,29.151049 -64.80976,62.667908 -38.38864,37.72799 -63.809317,61.79507 -66.739017,63.18531 l -4.732169,2.24556 -6.549147,-6.81513 c -3.632209,-3.77972 -6.549147,-7.95527 -6.549147,-9.375 0,-1.42009 3.764264,-6.80693 8.454252,-12.09842 C 100.96671,140.4264 232.79116,9.8552253 236.76419,7.8220237 242.38458,4.9457935 257.38527,2.8250069 273.00922,2.6977285 l 14.14237,-0.1152089 -0.14261,17.8316834 c -0.0971,12.147818 -0.78861,20.334679 -2.1693,25.684199 -1.88454,7.301779 -2.96711,8.85428 -15.4355,22.135882 -7.37485,7.855851 -40.98599,41.752146 -74.69141,75.325106 -53.3771,53.16732 -70.2135,68.69913 -74.46953,68.69913 -0.56242,0 -3.50341,-2.62864 -6.53554,-5.84142 z"
   id="path59"
   inkscape:connector-curvature="0" /><path
   style="fill:#ffffff;stroke-width:1.22977126"
   d=""
   id="path61"
   inkscape:connector-curvature="0" /><path
   style="fill:#ffffff;stroke-width:1.22977126"
   d="m 117.77012,210.7213 c -3.92899,-3.03842 -10.78002,-12.26956 -10.78002,-14.52511 0,-3.27203 5.40103,-9.09637 62.08157,-66.94723 57.26047,-58.442772 65.81464,-67.517528 65.81464,-69.819989 0,-2.07484 -2.47819,-4.581174 -4.52972,-4.581174 -0.86804,0 -30.2781,28.119378 -65.35566,62.487503 -36.62591,35.88516 -65.67285,63.38696 -68.229723,64.60028 -3.504849,1.66315 -4.919465,1.80848 -6.647447,0.68289 -3.83558,-2.49846 -11.4184,-12.25003 -11.4184,-14.68414 0,-1.28918 3.250155,-6.09361 7.222566,-10.6765 C 98.275061,143.01318 232.86514,9.8186672 237.1519,7.6019013 242.33959,4.9192392 266.50461,1.7487484 278.17252,2.219925 l 8.97907,0.3625946 -0.0772,16.6019114 c -0.0424,9.131052 -0.817,20.444096 -1.72123,25.1401 -1.60726,8.347045 -1.91246,8.828831 -13.63334,21.520996 C 248.92062,90.534117 133.40811,204.6173 127.348,208.43096 c -6.93697,4.36548 -6.90453,4.35772 -9.57788,2.29034 z"
   id="path63"
   inkscape:connector-curvature="0" /></svg>